<?xml version="1.0" encoding="UTF-8" standalone="no"?>
<svg
   xmlns:dc="http://purl.org/dc/elements/1.1/"
   xmlns:cc="http://creativecommons.org/ns#"
   xmlns:rdf="http://www.w3.org/1999/02/22-rdf-syntax-ns#"
   xmlns:svg="http://www.w3.org/2000/svg"
   xmlns="http://www.w3.org/2000/svg"
   xmlns:sodipodi="http://sodipodi.sourceforge.net/DTD/sodipodi-0.dtd"
   xmlns:inkscape="http://www.inkscape.org/namespaces/inkscape"
   height="512pt"
   viewBox="0 0 512 512"
   width="512pt"
   version="1.1"
   id="svg14"
   sodipodi:docname="piton.svg"
   inkscape:version="1.0.1 (3bc2e813f5, 2020-09-07)">
  <metadata
     id="metadata20">
    <rdf:RDF>
      <cc:Work
         rdf:about="">
        <dc:format>image/svg+xml</dc:format>
        <dc:type
           rdf:resource="http://purl.org/dc/dcmitype/StillImage" />
      </cc:Work>
    </rdf:RDF>
  </metadata>
  <defs
     id="defs18" />
  <sodipodi:namedview
     pagecolor="#ffffff"
     bordercolor="#666666"
     borderopacity="1"
     objecttolerance="10"
     gridtolerance="10"
     guidetolerance="10"
     inkscape:pageopacity="0"
     inkscape:pageshadow="2"
     inkscape:window-width="1366"
     inkscape:window-height="705"
     id="namedview16"
     showgrid="false"
     inkscape:zoom="0.55726091"
     inkscape:cx="229.30159"
     inkscape:cy="395.5027"
     inkscape:window-x="-8"
     inkscape:window-y="-8"
     inkscape:window-maximized="1"
     inkscape:current-layer="svg14" />
  <path
     d="m437 146h-91v90h-220v110c0 11.046875 8.953125 20 20 20v71c0 41.421875 33.578125 75 75 75h70c41.421875 0 75-33.578125 75-75v-41h-89.574219c-8.078125 0-15.027343-6.207031-15.410156-14.273438-.40625-8.617187 6.460937-15.726562 14.984375-15.726562h161c41.421875 0 75-33.578125 75-75v-70c0-41.421875-33.578125-75-75-75zm0 0"
     fill="#feef55"
     id="path2"
     style="fill:#ffea00;fill-opacity:1" />
  <path
     d="m437 146h-91v90h-90v276h35c41.421875 0 75-33.578125 75-75v-41h-89.574219c-8.078125 0-15.027343-6.207031-15.410156-14.273438-.40625-8.617187 6.460937-15.726562 14.984375-15.726562h161c41.421875 0 75-33.578125 75-75v-70c0-41.421875-33.578125-75-75-75zm0 0"
     fill="#fedc00"
     id="path4"
     style="fill:#ffea00;fill-opacity:1" />
  <path
     d="m186 256h140c22.089844 0 40-17.910156 40-40v-141c0-41.355469-33.644531-75-75-75h-70c-41.355469 0-75 33.644531-75 75v41h90c8.285156 0 15 6.714844 15 15s-6.714844 15-15 15h-161c-41.355469 0-75 33.644531-75 75v70c0 41.355469 33.644531 75 75 75h71v-70c0-22.089844 17.910156-40 40-40zm0 0"
     fill="#78e0ea"
     id="path6"
     style="fill:#003c8f;fill-opacity:1" />
  <path
     d="m291 0h-35v256h70c22.089844 0 40-17.910156 40-40v-141c0-41.355469-33.644531-75-75-75zm0 0"
     fill="#3cccdd"
     id="path8"
     style="fill:#003c8f;fill-opacity:1" />
  <path
     d="m236 61c0 8.285156-6.714844 15-15 15s-15-6.714844-15-15 6.714844-15 15-15 15 6.714844 15 15zm0 0"
     fill="#5a5a6e"
     id="path10"
     style="fill:#ffffff" />
  <path
     d="m306 451c0 8.285156-6.714844 15-15 15s-15-6.714844-15-15 6.714844-15 15-15 15 6.714844 15 15zm0 0"
     fill="#46465a"
     id="path12"
     style="fill:#ffffff" />
</svg>
